<?xml version="1.0" encoding="UTF-8" standalone="no"?>
<svg
   width="1080"
   zoomAndPan="magnify"
   viewBox="0 0 810 809.999993"
   height="1080"
   preserveAspectRatio="xMidYMid meet"
   version="1.2"
   id="svg836"
   sodipodi:docname="deye1_animar.svg"
   inkscape:version="1.1.2 (0a00cf5339, 2022-02-04)"
   xmlns:inkscape="http://www.inkscape.org/namespaces/inkscape"
   xmlns:sodipodi="http://sodipodi.sourceforge.net/DTD/sodipodi-0.dtd"
   xmlns="http://www.w3.org/2000/svg"
   xmlns:svg="http://www.w3.org/2000/svg">
  <sodipodi:namedview
     id="namedview838"
     pagecolor="#ffffff"
     bordercolor="#666666"
     borderopacity="1.0"
     inkscape:pageshadow="2"
     inkscape:pageopacity="0.0"
     inkscape:pagecheckerboard="0"
     showgrid="false"
     inkscape:zoom="0.63055556"
     inkscape:cx="283.87665"
     inkscape:cy="490.04405"
     inkscape:window-width="1920"
     inkscape:window-height="1116"
     inkscape:window-x="0"
     inkscape:window-y="0"
     inkscape:window-maximized="1"
     inkscape:current-layer="layer16" />
  <defs
     id="defs791">
    <clipPath
       id="3c32e736ce">
      <path
         d="M 40 24.597656 L 769.746094 24.597656 L 769.746094 755 L 40 755 Z M 40 24.597656 "
         id="path773" />
    </clipPath>
    <clipPath
       id="b217a7fcc2">
      <path
         d="M 297 316.640625 L 513.542969 316.640625 L 513.542969 358.640625 L 297 358.640625 Z M 297 316.640625 "
         id="path776" />
    </clipPath>
    <clipPath
       id="e6140542d5">
      <path
         d="M 329.175781 358.742188 L 370.59375 358.742188 L 370.59375 415.207031 L 329.175781 415.207031 Z M 329.175781 358.742188 "
         id="path779" />
    </clipPath>
    <clipPath
       id="4ac23fe3a5">
      <path
         d="M 349.886719 358.742188 C 338.449219 358.742188 329.175781 371.371094 329.175781 386.945312 C 329.175781 402.523438 338.449219 415.148438 349.886719 415.148438 C 361.320312 415.148438 370.59375 402.523438 370.59375 386.945312 C 370.59375 371.371094 361.320312 358.742188 349.886719 358.742188 Z M 349.886719 358.742188 "
         id="path782" />
    </clipPath>
    <clipPath
       id="c4808b42f6">
      <path
         d="M 436.589844 358.742188 L 478.007812 358.742188 L 478.007812 415.207031 L 436.589844 415.207031 Z M 436.589844 358.742188 "
         id="path785" />
    </clipPath>
    <clipPath
       id="d05b5a9fd2">
      <path
         d="M 457.296875 358.742188 C 445.863281 358.742188 436.589844 371.371094 436.589844 386.945312 C 436.589844 402.523438 445.863281 415.148438 457.296875 415.148438 C 468.734375 415.148438 478.007812 402.523438 478.007812 386.945312 C 478.007812 371.371094 468.734375 358.742188 457.296875 358.742188 Z M 457.296875 358.742188 "
         id="path788" />
    </clipPath>
  </defs>
  <g
     inkscape:groupmode="layer"
     id="layer17"
     inkscape:label="circulo"
     style="display:none">
    <path
       style="clip-rule:nonzero;fill:#a6a6a6;fill-opacity:1;fill-rule:nonzero;stroke:none"
       d="m 770.96287,369.70254 c 0,201.47266 -163.3125,364.78516 -364.78907,364.78516 C 204.70115,734.4877 41.388646,571.1752 41.388646,369.70254 41.380833,168.22598 204.70115,4.913478 406.1738,4.913478 607.65037,4.909571 770.96287,168.22598 770.96287,369.70254"
       id="path793" />
  </g>
  <g
     inkscape:groupmode="layer"
     id="layer3"
     inkscape:label="tronco"
     style="display:none">
    <path
       style="fill:#ffffff;fill-opacity:1;fill-rule:nonzero;stroke:none"
       d="m 618.9863,735.4877 c -18.02734,13.47265 -37.39843,25.27343 -57.85937,35.14453 -3.11328,1.50781 -6.25,2.94922 -9.38672,4.36718 -44.45703,19.92969 -93.69922,31.00782 -145.56641,31.00782 -51.86718,0 -101.10937,-11.07813 -145.54296,-31.00782 -3.17969,-1.41796 -6.31641,-2.85937 -9.40625,-4.36718 -20.46485,-9.89453 -39.83594,-21.67188 -57.85938,-35.14453 3.16016,-70.51954 40.625,-132.11719 96.11328,-168.49219 33.51953,-21.9961 73.60938,-34.76953 116.69531,-34.76953 6.57422,0 13.07813,0.30078 19.46485,0.88281 35.70312,3.22656 68.82422,15.23437 97.23047,33.88672 25.55078,16.74609 47.26953,38.83594 63.57422,64.66406 19.14062,30.3125 30.82421,65.78125 32.54296,103.82813"
       id="path799" />
  </g>
  <g
     inkscape:groupmode="layer"
     id="layer4"
     inkscape:label="clavicula"
     style="display:none">
    <path
       style="fill:#fbd5c0;fill-opacity:1;fill-rule:nonzero;stroke:none"
       d="m 522.86912,566.99551 c -3.25,24.59765 -14.09766,46.82812 -30.14844,64.20312 -21.50781,23.29688 -52.30859,37.90625 -86.54688,37.90625 -54.83984,0 -100.92187,-37.51172 -114,-88.28906 -1.16015,-4.50391 -2.0664,-9.12891 -2.69531,-13.82031 33.51953,-21.9961 73.60938,-34.76953 116.69531,-34.76953 6.57422,0 13.07813,0.27734 19.48829,0.88281 1.11718,0.0898 2.23046,0.20703 3.32031,0.32422 0.69922,0.0703 1.39453,0.14062 2.07031,0.23047 0.76563,0.0703 1.53125,0.1875 2.27344,0.28125 0.46484,0.0469 0.95312,0.11328 1.41797,0.18359 0.67578,0.0703 1.37109,0.1875 2.0664,0.28125 0.53516,0.0664 1.07032,0.16016 1.62891,0.23047 0.46094,0.0703 0.92578,0.14062 1.39062,0.23437 0.79297,0.11329 1.5586,0.25391 2.34766,0.3711 3.39063,0.57812 6.75781,1.23047 10.08203,1.97265 l 2.22656,0.48829 c 0.41797,0.11718 0.85938,0.20703 1.27735,0.32421 0.79297,0.1875 1.60547,0.3711 2.37109,0.58204 0.14063,0.0234 0.25391,0.0469 0.34766,0.0703 1,0.2539 2,0.51172 2.97265,0.78906 1.07032,0.25391 2.11329,0.55859 3.13672,0.85938 1.1836,0.32421 2.34766,0.67187 3.53125,1.02343 0.90625,0.27735 1.8125,0.55469 2.71875,0.85938 0.57813,0.18359 1.1836,0.37109 1.74219,0.55469 0.94922,0.30468 1.90234,0.6289 2.83203,0.95312 1.16016,0.39453 2.30078,0.78906 3.4375,1.20703 0.0937,0.0469 0.16406,0.0703 0.23047,0.0937 1.1875,0.41797 2.34766,0.85938 3.50781,1.30078 0.85938,0.34766 1.74219,0.67188 2.625,1.04688 2.30078,0.90234 4.55469,1.85547 6.78516,2.83203 l 2.92578,1.32422 c 0.88281,0.39453 1.76563,0.8125 2.64844,1.23047 0.8125,0.39453 1.60156,0.76562 2.39062,1.16015 0.74219,0.35157 1.46485,0.72266 2.1836,1.09375 0.46484,0.23047 0.95312,0.46485 1.41797,0.71875 1.92578,0.97657 3.80859,2 5.66796,3.01953 0.67188,0.3711 1.3711,0.76563 2.01954,1.14063 0.4414,0.25391 0.85937,0.48437 1.27734,0.71875 l 1.57812,0.92969 1.60547,0.97656 1.04297,0.625 c 1,0.58203 1.97656,1.18359 2.94922,1.8125 1.07031,0.67187 2.11719,1.34766 3.16016,2.04297"
       id="path801" />
  </g>
  <g
     inkscape:groupmode="layer"
     id="layer5"
     inkscape:label="pescoco"
     style="display:none">
    <path
       style="fill:#fbd5c0;fill-opacity:1;fill-rule:nonzero;stroke:none"
       d="m 458.04099,473.80801 v 102.03906 c 0,25.80469 -21.11328,46.94141 -46.91797,46.94141 h -9.89453 c -25.80859,0 -46.89844,-21.13672 -46.89844,-46.94141 V 473.80801 c 0,-25.80469 21.08985,-46.89844 46.89844,-46.89844 h 9.89453 c 25.80469,0 46.91797,21.09375 46.91797,46.89844"
       id="path803" />
  </g>
  <g
     inkscape:groupmode="layer"
     id="layer6"
     inkscape:label="inferior"
     style="display:none">
    <path
       style="fill:#f8a29e;fill-opacity:1;fill-rule:nonzero;stroke:none"
       d="m 458.04099,473.80801 v 54.0039 c -15.42187,8.57032 -31.77344,13.54297 -48.38281,13.54297 -19.57813,0 -38.25391,-5.4375 -55.32813,-14.9375 v -52.60937 c 0,-25.80469 21.08985,-46.89844 46.89844,-46.89844 h 9.89453 c 25.80469,0 46.91797,21.09375 46.91797,46.89844"
       id="path805" />
  </g>
  <g
     inkscape:groupmode="layer"
     id="layer8"
     inkscape:label="cabelo"
     style="display:none">
    <path
       style="fill:#724141;fill-opacity:1;fill-rule:nonzero;stroke:none"
       d="m 559.96287,348.96035 c 0,0 17.60547,-112.28125 7.64453,-146.33203 0,0 -23.11328,-44.92187 -56.42188,-59.625 l 15.79688,32.51563 c 0,0 -49.84766,-58.83204 -160.57422,-44.89844 l 19.35156,16.26172 c 0,0 -77.25781,1.90234 -121.45703,-18.39844 0,0 10.75391,30.77734 19.25391,35.42187 8.52343,4.64454 -20.11328,-12.3789 -24.76172,-27.10546 0,0 -19.55469,46.5 -7.73438,126.21875 l -8.52343,-18.58204 c 0,0 0,72.70313 13.14843,98.29688 13.16797,25.57422 59.625,47.38672 59.625,47.38672 l 244.65235,-41.16016"
       id="path797" />
  </g>
  <g
     inkscape:groupmode="layer"
     id="layer13"
     inkscape:label="eorelha"
     style="display:none">
    <path
       style="fill:#fbd5c0;fill-opacity:1;fill-rule:nonzero;stroke:none"
       d="m 286.01755,434.46035 c 0,0 -24.29296,-8.26953 -39.80859,-35.35156 -16.88672,-29.40625 -6.29687,-47.73438 -2.95312,-51.70703 9.1289,-10.84375 23.23046,-3.87891 25.55078,0 2.32422,3.8789 35.98047,64.96875 17.21093,87.05859"
       id="path811" />
  </g>
  <g
     inkscape:groupmode="layer"
     id="layer12"
     inkscape:label="dorelha"
     style="display:none">
    <path
       style="fill:#fbd5c0;fill-opacity:1;fill-rule:nonzero;stroke:none"
       d="m 532.64646,434.46035 c 0,0 24.29688,-8.26953 39.8125,-35.35156 16.86328,-29.40625 6.27344,-47.73438 2.92969,-51.70703 -9.12891,-10.84375 -23.23047,-3.87891 -25.55078,0 -2.32422,3.8789 -35.95703,64.96875 -17.1875,87.05859"
       id="path807" />
  </g>
  <g
     inkscape:groupmode="layer"
     id="layer11"
     inkscape:label="efundo"
     style="display:none">
    <path
       style="fill:#f8a29e;fill-opacity:1;fill-rule:nonzero;stroke:none"
       d="m 262.18943,357.04238 c 0,0 -15.40234,1.97657 -9.98828,23.64453 5.41015,21.69532 19.67187,30.26563 39.01953,41.34766 19.375,11.07813 -9.66016,-60.57812 -29.03125,-64.99219"
       id="path813" />
  </g>
  <g
     inkscape:groupmode="layer"
     id="layer10"
     inkscape:label="dfundo"
     style="display:none">
    <path
       style="fill:#f8a29e;fill-opacity:1;fill-rule:nonzero;stroke:none"
       d="m 556.45505,357.04238 c 0,0 15.42579,1.97657 10.01172,23.64453 -5.43359,21.69532 -19.67187,30.26563 -39.04297,41.34766 -19.35156,11.07813 9.6836,-60.57812 29.03125,-64.99219"
       id="path809" />
  </g>
  <g
     inkscape:groupmode="layer"
     id="layer7"
     inkscape:label="cabeca"
     style="display:none">
    <path
       style="fill:#fbd5c0;fill-opacity:1;fill-rule:nonzero;stroke:none"
       d="m 556.45505,342.73379 c 0,-89.03125 -65.71093,-161.22266 -146.79687,-161.22266 -81.0625,0 -146.82031,72.19141 -146.82031,161.22266 0,89.03125 65.75781,182.10547 146.82031,182.10547 76.1875,0 146.79687,-93.81641 146.79687,-182.10547"
       id="path815" />
  </g>
  <g
     inkscape:groupmode="layer"
     id="layer9"
     inkscape:label="testa"
     style="display:none">
    <path
       style="fill:#724141;fill-opacity:1;fill-rule:nonzero;stroke:none"
       d="M 554.36521,206.87832 425.9863,163.90566 h -32.95703 l -128.3789,42.97266 -2.08985,135.85547 c 3.06641,-30.24219 29.42969,-109.14453 54.97657,-96.37109 20.74218,10.35937 70.61328,14.61328 88.66015,15.84375 v 0.41796 c 0,0 1.1836,-0.0703 3.32422,-0.1875 2.11328,0.11719 3.32031,0.1875 3.32031,0.1875 v -0.41796 c 18.02344,-1.23047 67.89453,-5.48438 88.63672,-15.84375 25.54688,-12.77344 51.91016,66.1289 54.97656,96.37109 l -2.08984,-135.85547"
       id="path817" />
  </g>
  <g
     inkscape:groupmode="layer"
     id="layer14"
     inkscape:label="sobrancelha"
     style="display:none">
    <g
       id="g1687">
      <path
         style="clip-rule:nonzero;fill:#100f0d;fill-opacity:1;fill-rule:nonzero;stroke:none"
         d="m 431.7324,317.8041 c 0.39453,0.0352 0.4414,0.1836 0.60156,0.16016 -0.12109,-0.0312 -0.0508,-0.0547 0.0195,-0.0781 -0.21484,-0.0156 -0.67187,-0.2539 -0.62109,-0.082 z m -3.49219,-6.01172 c -0.0195,-0.3164 -0.0156,-0.625 -0.0977,-0.91015 0.0391,0.24218 0.004,0.5625 0.0274,0.90234 0.004,0.17188 0.0156,0.34375 0.0351,0.51563 0.0312,0.16796 0.0781,0.33203 0.14063,0.48046 -0.043,-0.16796 -0.0703,-0.33593 -0.0898,-0.49609 -0.008,-0.16797 -0.0117,-0.33203 -0.0156,-0.49219 z m 2.56641,5.09375 c -0.0274,0.0352 -0.0117,0.11719 0.0625,0.0899 0.23047,-0.0312 0.625,0.42968 0.74218,0.25781 -0.14453,-0.043 -0.30078,-0.125 -0.44531,-0.19922 -0.14453,-0.0664 -0.27344,-0.12891 -0.35937,-0.14844 z m 2.43359,1.33985 c 0.0195,-0.0781 0.33984,-0.008 0.3125,-0.10547 -0.17578,-0.0547 -0.58594,-0.043 -0.89844,-0.17578 0,0.15234 0.53125,0.15234 0.58594,0.28125 z m 1.54297,0.23047 c 0.0625,0.11328 0.40625,0.0781 0.63672,0.0859 0.0469,-0.21484 -0.35547,0.0117 -0.63672,-0.0859 z m 72.48047,12.3789 c 0.25781,0.23438 0.5625,0.58985 0.74219,0.67578 0.0351,-0.0312 0.0351,-0.11328 -0.0508,-0.10937 -0.25781,-0.0508 -0.51953,-0.67188 -0.6914,-0.56641 z m -1.00781,-1.83984 c -0.0625,0.0469 -0.28907,-0.23438 -0.33204,-0.14453 0.10938,0.17578 0.46875,0.44922 0.66797,0.75781 0.082,-0.12109 -0.37109,-0.47656 -0.33593,-0.61328 z m 0.57812,0.84765 c 0.18359,0.14063 0.50781,0.58594 0.53516,0.40625 -0.35157,-0.24218 -0.32422,-0.39062 -0.47657,-0.46484 0.0899,0.0977 0.0156,0.0781 -0.0586,0.0586 z m 6.59766,7.71094 c -0.42969,-0.41797 -0.91407,-1.28515 -1.53125,-1.76562 0.58984,0.59375 0.95312,1.3125 1.53125,1.76562 z M 427.5488,308.3002 c 0.0977,0.0351 0.0117,0.20703 -0.0664,0.36718 -0.0703,0.15235 -0.15625,0.35157 -0.0156,0.33985 0.26953,-0.41797 0.32813,-0.64063 0.4336,-0.89453 -0.0664,-0.0781 -0.21485,0.0664 -0.35157,0.1875 z m 3.13282,-4.76954 c 0.23437,-0.15234 0.48047,-0.29296 0.74218,-0.4375 0.25391,-0.15234 0.52735,-0.29296 0.82422,-0.42968 1.91797,-1.04688 4.40625,-2.39453 7.16797,-3.27344 -0.32422,0.0859 -0.73437,0.20703 -1.1914,0.35547 -0.45704,0.13672 -0.9375,0.38281 -1.44532,0.58984 -1.02343,0.40235 -2.03125,0.98438 -2.84375,1.39063 -0.0664,0.0312 -0.1289,0.0625 -0.125,0.0234 0.26563,-0.18359 0.64844,-0.3789 0.79688,-0.53906 -0.3086,0.13672 -0.4961,0.26563 -0.67578,0.39844 -0.1836,0.13281 -0.35547,0.27344 -0.63282,0.45703 -0.51562,0.33203 -1.11328,0.53125 -1.68359,0.78516 -0.55859,0.26953 -1.12109,0.54297 -1.5625,0.96484 -0.27734,0.28516 -0.51172,0.69531 -0.51562,0.90234 0.28906,-0.50781 0.66796,-0.89843 1.14453,-1.1875 z m 74.53125,24.12891 c 0.043,-0.12109 -0.23438,-0.375 -0.37891,-0.57422 -0.20312,0.0899 0.24609,0.29297 0.37891,0.57422 z m -61.59375,-30.19141 c -0.53125,0.0469 -0.82813,0.19922 -1.03907,0.33204 0.14844,-0.0664 0.375,-0.125 0.57813,-0.1836 0.20703,-0.0391 0.39062,-0.082 0.46094,-0.14844 z m 66.57422,38.51563 c -0.21094,-0.13672 -0.41407,-0.27734 -0.62891,-0.41406 -0.14063,0.10547 0.55469,0.55078 1.02734,0.99609 -0.0898,-0.17578 -0.33593,-0.42578 -0.39843,-0.58203 z m -67.11329,-22.04297 c -0.082,-0.15625 -0.5664,0.32813 -0.53515,0.40234 0.29687,-0.23046 0.25,-0.29296 0.53515,-0.40234 z m -0.82421,0.57813 c -0.16016,0.0351 -0.4375,0.28906 -0.4375,0.39843 0.12109,-0.1289 0.46484,-0.30468 0.4375,-0.39843 z m 55.62109,5.88671 c -0.38672,-0.32421 -0.42969,-0.26953 -0.6875,-0.57812 -0.12891,0.10547 0.61719,0.61719 0.6875,0.57812 z m 0.31641,0.32032 c 0.10156,0.17968 0.5,0.48047 0.625,0.47656 -0.19141,-0.13281 -0.52735,-0.51563 -0.625,-0.47656 z m 16.25781,18.14062 c -1.22656,-0.85547 -2.55469,-1.7539 -3.94922,-2.67969 0.65625,0.61329 1.17187,1.3086 1.86719,2.03907 -0.61719,-0.52735 -1.39063,-1.46485 -1.98047,-2.11328 -0.0156,-0.008 -0.0312,-0.0195 -0.0469,-0.0312 0.0234,0.20312 0.48047,0.62109 0.73438,0.9375 -0.9375,-0.70704 -2.03125,-1.58204 -3.21485,-2.55469 -14.1914,-9.11328 -34.52734,-20.16406 -46.30859,-23.38672 -0.15625,-0.0273 -0.30469,-0.0547 -0.45703,-0.0781 -0.51172,-0.0781 -1.02344,-0.16015 -1.54688,-0.23828 -0.52343,-0.0781 -1.05078,-0.10937 -1.58593,-0.16797 -2.13282,-0.1914 -4.34766,-0.20703 -6.48828,0.125 -2.14063,0.32032 -4.19141,1.00391 -6.05079,2.00391 -1.87109,0.99609 -3.53906,2.34766 -5.08593,3.73438 -0.0977,-0.0117 -0.20703,0.15625 -0.14453,-0.0274 -0.11719,0.0859 -0.0977,0.13281 -0.0703,0.17578 -0.35937,0.24219 -0.39062,0.23828 -0.73437,0.48438 -0.10938,0.082 -0.19141,0.13281 -0.33203,0.2539 -0.17188,0.15235 -0.35157,0.30469 -0.53125,0.45704 l -0.13672,0.11328 c -0.0547,0.0234 -0.11328,0.0391 -0.16797,0.0625 l -0.33984,0.12109 c -0.11719,0.0352 -0.23047,0.0742 -0.34375,0.10547 -0.11719,0.0352 -0.23829,0.0664 -0.3086,0.082 -0.66015,0.15625 -1.26953,0.21875 -1.62109,0.14453 0.4414,-0.0391 0.89453,-0.10156 1.35156,-0.1875 0.12109,-0.0234 0.22266,-0.0469 0.35547,-0.0742 0.14844,-0.0391 0.30859,-0.082 0.46484,-0.13281 0.15625,-0.0469 0.3125,-0.0977 0.46485,-0.15625 0.0859,-0.0156 0.14843,-0.0742 0.21093,-0.125 l 0.1875,-0.15625 c 0.35938,-0.31641 0.72266,-0.63281 1.08204,-0.94141 0.30859,-0.26171 0.60546,-0.52343 0.88281,-0.78906 -0.42969,0.22266 -0.95703,0.63281 -1.45703,1.05078 -0.19532,0.14063 -0.64453,0.57422 -0.98828,0.75782 -0.41016,0.11718 -0.81641,0.17578 -1.05469,0.13671 -0.54297,0.29688 -0.92578,0.11329 -1.23828,0.35938 -0.0859,-0.15234 -0.45703,-0.0859 -0.89453,-0.0195 -0.42969,0.0742 -0.94141,0.125 -1.22266,0.0586 -0.0312,-0.17578 0.4375,-0.0312 0.60547,-0.0547 -0.13672,-0.0586 -0.25391,-0.15234 -0.60156,-0.10937 0.15625,-0.0352 0.14843,-0.13281 0.39453,-0.125 -0.45313,-0.11719 -0.75391,-0.16016 -1.04688,-0.20313 -0.28906,-0.0391 -0.57812,-0.0742 -0.96094,-0.22265 0.0352,-0.0391 0.19141,0.0234 0.20313,-0.0312 -0.66797,-0.2461 -1.66016,-0.76563 -2.33594,-1.28516 0.0703,-0.0547 0.22656,0.10156 0.41406,0.2461 0,-0.12891 -0.66406,-0.64454 -0.21484,-0.45704 -0.24609,-0.22265 -0.34375,-0.32031 -0.44141,-0.41406 -0.0976,-0.0976 -0.19531,-0.1875 -0.34375,-0.46484 0.13282,0.16797 0.25,0.26953 0.36329,0.35937 -0.9375,-1.16797 -1.57813,-3.02343 -1.57813,-5.92187 0,0 0.0859,-0.14063 0.25781,-0.38281 0.082,-0.44141 -0.20703,-0.76954 -0.082,-1.25391 -0.16015,-0.0352 -0.27344,0.53906 -0.35156,0.32422 0.25391,-0.3125 0.41797,-0.58985 0.55469,-0.86328 0.13672,-0.26953 0.23047,-0.55469 0.38672,-0.8125 0.51953,-0.56641 0.7539,-0.60938 1.14453,-0.84766 0.35156,-0.42969 0.58593,-0.79297 0.88672,-1.13672 0.30859,-0.33594 0.66796,-0.67578 1.22656,-1.08984 0.26953,-0.17188 0.48828,-0.27735 0.71094,-0.42188 0.20703,-0.14062 0.24609,-0.26562 0.24609,-0.26562 0.11328,-0.0742 0.34375,-0.1211 0.53906,-0.25391 0.30469,-0.22656 0.51953,-0.51953 0.70703,-0.65234 0.17188,-0.11328 0.71485,-0.30469 0.86719,-0.38281 0.61719,-0.36329 1.27344,-0.6875 1.98828,-1.03516 0.25391,-0.11328 0.51172,-0.23047 0.76953,-0.34766 0.26953,-0.0976 0.53907,-0.1914 0.81641,-0.28906 0.55078,-0.19141 1.11719,-0.38672 1.6875,-0.58203 0.58594,-0.14453 1.18359,-0.29297 1.78516,-0.4375 0.30468,-0.0742 0.60546,-0.14453 0.91015,-0.21875 0.3086,-0.0586 0.6211,-0.0977 0.92969,-0.14453 0.625,-0.0937 1.25,-0.1875 1.875,-0.28125 0.31641,-0.0547 0.63281,-0.0625 0.94922,-0.0859 l 0.9414,-0.0547 c 0.63282,-0.0391 1.25782,-0.0781 1.88282,-0.11328 0.625,0.0117 1.24218,0.0195 1.85156,0.0312 0.66797,0.0156 1.36328,-0.008 2.04297,0.0547 0.67578,0.0703 1.35156,0.14844 1.99219,0.23047 2.65234,0.27734 5.27343,0.89453 7.80859,1.65625 2.53906,0.76953 5.02344,1.70312 7.5,2.76562 0.12891,0.0625 1.10937,0.54688 1.83984,0.90625 4.56641,2.14453 9.64063,5.10547 14.53125,8.5 4.89063,3.39453 9.60547,7.20703 13.64063,10.87891 0.0117,0.11328 0.23437,0.24219 0.004,0.16406 0.13282,0.13672 0.17969,0.11719 0.22266,0.0899 0.37109,0.42187 0.37109,0.45703 0.73047,0.86718 0.82031,0.95703 2.26562,2.25782 2.60937,2.94922 -1.30468,-1.42969 -2.79296,-3.08984 -4.32031,-4.40625 0.74219,1.00391 2.46485,2.42969 2.83985,3.3711 0.58593,0.36328 0.67578,0.80859 1.09765,0.95703 -0.14844,0.3164 1.23828,1.20703 1.59375,1.72656 -0.0937,0.15234 -0.3789,-0.30859 -0.51562,-0.43359 0.0586,0.15234 0.0859,0.3164 0.39843,0.55078 -0.14843,-0.0977 -0.21093,-0.0195 -0.40625,-0.21875 0.57813,0.89062 0.94141,1.05078 1.54297,1.76953 -0.0508,0.0156 -0.17578,-0.13281 -0.21875,-0.0937 0.51953,0.63672 1.41016,1.61328 2.19141,2.21484 -0.0742,0.0547 -0.26172,-0.13281 -0.45313,-0.33203 -0.0234,0.15234 0.75782,0.80078 0.25,0.53516 0.57032,0.57422 0.53516,0.42578 1.04297,1 -0.19531,-0.16407 -0.34765,-0.27344 -0.48437,-0.37891 2.03906,2.06641 3.82031,3.97266 5.28906,5.62109 0,0 -0.004,-0.004 -0.004,-0.004 0,0 0.004,0.004 0.004,0.004 -0.004,0 -0.008,-0.004 -0.008,-0.008 z M 383.91209,316.00723 c 0.008,-0.13672 0.42187,-0.48828 0.35156,-0.66797 -0.0859,0.12109 -0.23047,0.33984 -0.32813,0.5039 -0.0937,0.16407 -0.16015,0.26563 -0.0234,0.16407 z m -4.07032,2.63672 c -0.0351,-0.10157 0.6875,-0.0742 0.64453,-0.19532 -0.0508,-0.0273 -0.30078,0.0274 -0.49218,0.0742 -0.19141,0.0469 -0.33203,0.0977 -0.15235,0.1211 z m 2.59766,-1.3086 c 0.39062,-0.24609 0.66016,-0.40234 0.78125,-0.61719 -0.12109,0.0781 -0.71484,0.4961 -0.78125,0.61719 z m 2.28906,-2.34765 c 0.15625,-0.27344 0.23438,-0.53125 0.10547,-0.53516 -0.0781,0.23047 -0.13672,0.43359 -0.10547,0.53516 z m -15.79687,-0.62891 c -0.2461,-0.21484 -0.52735,-0.43359 -0.81641,-0.50391 0.10547,0.14063 0.66406,0.65625 0.81641,0.50391 z m 15.57812,-4.83203 c -0.008,0.21875 -0.0117,0.41797 -0.0195,0.6289 -0.0273,1.17188 0.10938,-0.10546 0.0195,-0.6289 z m -4.60547,-6.89453 c 0.28125,0.1875 0.57422,0.38281 0.83985,0.5625 0.25781,0.1875 0.49218,0.34375 0.67187,0.41797 -0.21875,-0.17188 -0.52734,-0.50391 -0.83984,-0.71875 -0.3086,-0.21875 -0.58203,-0.36719 -0.67188,-0.26172 z m -77.23047,30.625 c -0.004,-0.21094 -0.84375,0.82031 -0.77343,0.79687 z m 3.2461,-3.85938 c -0.1836,0.28906 -0.4336,0.34766 -0.42188,0.52735 0.25,-0.25 0.55469,-0.38282 0.42188,-0.52735 z m 77.82422,-14.01562 c 0.0195,0.0937 0.19531,-0.11719 0.30078,-0.36719 0.11328,-0.25 0.21094,-0.51172 0.17969,-0.49609 -0.15235,0.29296 -0.28516,0.58984 -0.48047,0.86328 z m -3.63282,2.84765 c 0.29297,-0.13281 0.53125,-0.0508 0.60547,-0.21875 -0.32422,0.0977 -0.63672,0.0234 -0.60547,0.21875 z m 5.3125,-5.78515 c -0.11328,0.46875 -0.24218,0.9375 -0.38281,1.32031 0.0859,-0.0352 0.16406,-0.20313 0.23438,-0.41016 0.0625,-0.20703 0.10937,-0.44922 0.16797,-0.63281 -0.0117,0.54688 -0.0664,1.16797 -0.25,1.84766 -0.16797,0.67187 -0.46485,1.41406 -0.96875,2.13281 -0.4961,0.72266 -1.21875,1.40625 -2.08594,1.88281 -0.86719,0.48828 -1.83985,0.76172 -2.78125,0.86719 -0.94922,0.11328 -1.875,0.0664 -2.76172,-0.0703 -0.44141,-0.0664 -0.875,-0.15625 -1.30859,-0.27735 l -0.16797,-0.0469 -0.24219,-0.0742 c -0.16406,-0.0508 -0.32422,-0.10938 -0.48438,-0.17188 l -0.48046,-0.1875 c -0.13672,-0.0976 -0.25782,-0.22265 -0.38672,-0.33203 -0.32813,-0.3125 -0.65235,-0.62109 -0.97657,-0.92578 -0.24218,-0.22656 -0.48437,-0.44922 -0.72656,-0.66797 -0.46875,-0.45312 -0.9414,-0.83593 -1.375,-1.24218 0.16797,-0.16016 -0.55078,-0.85157 -1.10156,-1.26172 0.21094,0.0469 0.12891,-0.0586 0.35156,-0.0586 0.0781,0.1211 0.40235,0.27344 0.66016,0.51563 -0.0937,-0.14844 -0.375,-0.38672 -0.71875,-0.61719 -0.34375,-0.21875 -0.72656,-0.47266 -1.00391,-0.68359 -0.0625,0.0586 0.23047,0.17578 0.31641,0.26562 0.0234,0.0586 -0.1211,-0.0312 -0.29297,-0.13672 -0.17578,-0.0976 -0.38281,-0.19922 -0.46484,-0.20312 0.43359,0.375 0.66796,0.50781 1.0664,0.75781 -0.11328,0.0664 -0.42578,-0.17969 -0.77734,-0.44531 -0.35938,-0.2461 -0.75391,-0.52735 -0.97656,-0.58594 -0.13672,-0.12109 -0.0195,-0.10156 0.10546,-0.0391 -0.28125,-0.19531 -0.58203,-0.35938 -0.87109,-0.52735 -0.33203,-0.19921 -0.67578,-0.33203 -0.98437,-0.42578 0.10156,0.0625 0.32421,0.16016 0.59765,0.29297 0.26563,0.14844 0.58985,0.31641 0.91016,0.47656 -0.26172,-0.0273 -0.57813,-0.20312 -0.92578,-0.40625 -0.35547,-0.1875 -0.75,-0.38281 -1.12891,-0.5039 0.0117,-0.13281 0.20313,-0.0547 0.41406,0.043 -0.13281,-0.19141 -0.55468,-0.2461 -0.5625,-0.10547 -0.21875,-0.13672 -0.5625,-0.22656 -0.77343,-0.21094 1.17578,0.27344 2.20703,1.09766 3.27343,1.63281 0.008,-0.0586 -0.14843,-0.14062 -0.2539,-0.19922 0.1875,-0.0625 0.7539,0.46094 1.32422,0.76563 -0.0703,-0.004 -0.15235,-0.0391 -0.2461,-0.0664 0.35156,0.375 1.26953,0.82813 1.59766,1.25391 -1.21485,-0.9375 -2.48047,-1.71484 -3.80078,-2.34375 -1.32813,-0.61328 -2.71094,-1.08203 -4.17578,-1.49609 0.23828,-0.0586 0.58593,0.0117 0.94921,0.0976 0.36329,0.0859 0.75391,0.15625 1.03907,0.21485 -0.24219,-0.16016 -1.26172,-0.3711 -1.62891,-0.46094 0.28516,-0.0312 0.67578,0.0781 1.08203,0.19531 0.41406,0.10547 0.81641,0.3125 1.19531,0.35156 -3.49218,-1.28906 -6.73437,-1.35156 -10.91406,-0.6875 1.73047,-0.16015 2.84766,-0.33984 4.21875,-0.34375 -0.0391,0.0508 -0.10937,0.0859 -0.25,0.082 0.4375,0.0352 1.10547,0.004 1.76563,0.043 0.65625,0.0625 1.33203,0.0781 1.76953,0.21875 -0.0703,0.082 -0.44922,-0.0664 -0.65235,-0.0469 0.38282,0.0898 0.84375,0.21484 1.35547,0.28515 -2.08203,-0.12109 -4.22656,-0.17968 -6.53906,0.23438 -0.0391,-0.0625 -0.26562,-0.008 -0.17969,-0.14844 -0.64843,0.0781 -1.29687,0.12891 -1.94922,0.23047 l -1.96484,0.34766 c -0.67187,0.14453 -1.34766,0.28906 -2.01562,0.43359 -0.66407,0.15625 -1.32813,0.3125 -1.98047,0.46484 -1.03907,0.25 -2.04297,0.51172 -3.02735,0.77735 -14.24609,5.63281 -34.40625,17.3125 -46.02343,25.4414 0.0937,-0.10546 0.1875,-0.21093 0.28125,-0.3164 -0.0899,0.10156 -0.1836,0.20703 -0.28125,0.3164 0.35546,-0.53906 1.44921,-1.63671 0.55078,-0.61328 1.35937,-1.5039 2.95703,-3.20312 4.7539,-5.02343 0.21094,-0.29297 0.375,-0.51954 0.82813,-0.94922 -0.10938,0.0234 -0.29297,0.21093 -0.45313,0.33203 0.0312,-0.20313 0.3711,-0.32031 0.55078,-0.54688 -1.0625,0.8125 -2.1289,1.89453 -3.18359,2.95313 0.23828,-0.33594 0.87109,-1.07031 1.49219,-1.65625 -0.46094,0.32812 -1.05469,0.98437 -1.5625,1.43359 0.40234,-0.54297 -0.16016,0.0117 -0.42969,0.21094 2.44531,-2.57031 3.22266,-3.42188 5.95703,-6.19141 -0.5039,0.44922 -0.85156,0.72266 -1.20312,1.16016 -0.0899,0.10547 -0.35938,0.18359 -0.16797,-0.0117 -0.0977,0 -0.28516,0.47656 -0.50781,0.44141 0.11718,-0.51953 1.39843,-1.5586 1.89062,-2.22657 -0.082,-0.0156 -0.28125,0.21875 -0.27734,0.0352 -0.34766,0.33594 0.24218,0.0234 -0.32032,0.47656 0.14063,-0.58593 0.95704,-1.14062 1.42969,-1.58593 0.40625,-0.37891 0.83203,-0.87891 1.44922,-1.40235 -0.44141,0.17969 -1.25391,1.10156 -1.86328,1.6211 -0.16797,0.11718 0.0195,-0.0781 0.13672,-0.1836 1.03906,-1.04297 2.88672,-2.83984 3.89453,-3.72265 -0.53906,0.21093 -0.94922,0.78906 -1.69922,1.47265 -0.0195,-0.0508 0.12891,-0.16406 0.22266,-0.25781 -1.11328,0.87109 -3.24219,2.95312 -4.50391,4.38281 -0.37891,0.4336 -0.60547,0.80078 -0.92969,1.13672 -0.33593,0.35547 -1.0664,1.04688 -1.28125,1.56641 -0.55468,0.4414 -0.66406,0.67187 -0.93359,1.12109 -0.0664,-0.0312 0.0586,-0.20703 -0.0898,-0.082 -0.28125,0.23047 -0.0117,0.20312 -0.11719,0.35156 -0.15235,0.11719 -0.57422,0.35156 -0.65235,0.61719 -0.0898,-0.19141 -0.54296,0.55078 -0.97656,1.07812 0.20703,-0.1289 0.52344,-0.49609 0.66016,-0.45312 -0.64844,0.86719 -1.4336,1.47656 -2.21875,2.36719 0.49219,-0.69141 1.4414,-1.57422 2.0625,-2.20703 -0.19531,-0.004 -0.61328,0.51953 -0.9336,0.80859 1.35547,-2.03906 3.48438,-4.71484 5.9336,-7.35156 2.44531,-2.64844 5.19531,-5.26953 7.67187,-7.30469 0.13282,0.19531 1.20703,-0.61328 1.9375,-1.20313 -0.15234,0.23438 0.008,0.15235 -0.10156,0.40625 -0.17578,0.0781 -0.47656,0.44922 -0.85547,0.72266 0.41406,-0.18359 1.49219,-1.26953 2.26953,-1.83594 -0.043,-0.082 -0.32031,0.23828 -0.46093,0.32422 -0.15625,0.0391 0.69531,-0.62109 0.79296,-0.80859 -0.67968,0.41406 -0.92968,0.68359 -1.42187,1.10937 -0.0312,-0.26953 1.73437,-1.35547 2.12891,-1.83984 0.24218,-0.14453 0.10546,0.0273 -0.0664,0.16797 0.85156,-0.60938 1.71875,-1.25781 2.35547,-1.8125 -0.28125,0.17578 -1.10938,0.79297 -1.88281,1.42969 0.40625,-0.57032 1.61718,-1.24219 2.45703,-1.97657 0.11718,0.0664 -0.10938,0.25 -0.3711,0.44141 0.28907,-0.0703 0.67188,-0.50781 0.55078,-0.58203 0.3125,-0.16797 0.69532,-0.48438 0.8711,-0.71094 -1.29688,1.0625 -2.89453,1.94531 -4.19531,3.05469 0.0625,0.0234 0.24609,-0.14844 0.3789,-0.25 -0.0547,0.22656 -0.97265,0.76562 -1.63281,1.38281 0.0391,-0.082 0.11719,-0.17969 0.20703,-0.27734 -0.61719,0.35156 -1.60547,1.36328 -2.21484,1.73828 3.19922,-2.74219 6.39843,-5.40625 10.01953,-7.6875 -0.40625,0.49609 -1.58203,1.22656 -2.17578,1.80078 0.34765,-0.19141 1.5,-1.05469 1.92968,-1.37109 -0.5039,0.60156 -1.82812,1.28125 -2.57812,2.00781 4.22266,-3.01563 7.66016,-5.42188 12.4375,-8.41406 -2.01563,1.12109 -3.23828,2.00781 -4.78906,3.01562 0.0117,-0.0703 0.0742,-0.15234 0.23437,-0.25781 -0.50781,0.3164 -1.25,0.82031 -2.0039,1.32812 -0.74219,0.51953 -1.4961,1.03907 -2.03907,1.36719 0.0117,-0.125 0.51172,-0.375 0.71875,-0.55078 -0.48047,0.24609 -1.03515,0.61719 -1.61718,1.04297 2.22265,-1.89844 4.69531,-3.55078 7.30468,-5.39844 0.0742,0.0273 0.32422,-0.15625 0.28125,0.0195 3.01953,-1.80469 6.1875,-3.57812 9.38672,-5.0625 3.19531,-1.49219 6.42969,-2.6914 9.47266,-3.41015 0.23047,-0.0703 0.19531,-0.16016 0.42578,-0.23047 0.91016,-0.16016 1.85156,-0.38672 2.84375,-0.5586 0.98828,-0.21484 2.00781,-0.34765 3.03906,-0.49218 2.05078,-0.35157 4.22656,-0.4375 6.29297,-0.32032 0.64063,0.0742 1.30469,0.0742 1.94141,0.0899 0.63281,0.0156 1.23828,0.0469 1.74218,0.25781 0.84375,0.10937 1.82032,0.18359 2.83594,0.375 0.50781,0.11328 1.02344,0.23047 1.54688,0.34766 0.51953,0.125 1.04687,0.23046 1.54687,0.42187 1.00391,0.35938 2.00391,0.66406 2.82813,1.125 0.83984,0.42578 1.57422,0.82031 2.08203,1.25391 l 0.85156,0.47265 c 0.17578,0.19532 0.21484,0.33985 0.5,0.57032 0.30469,0.10546 0.625,0.3164 0.96484,0.58203 0.16797,0.13281 0.34375,0.27734 0.52735,0.42578 0.17969,0.15234 0.35547,0.33203 0.54297,0.5 0.14453,0.0742 0.23047,0.0664 0.29297,0.0156 -0.45313,-0.14453 -0.22266,-0.19531 -0.875,-0.65625 -0.0469,-0.12109 0.78906,0.5 1.11718,0.74219 -0.29687,-0.10156 0.0586,0.34766 -0.34375,0.0469 0.20313,0.25 0.47657,0.50781 0.78907,0.8164 0.3125,0.31641 0.68359,0.65235 1.11718,1.02735 -0.17578,0.0234 -0.20312,-0.17969 -0.41406,-0.26563 0.20313,0.25 0.33594,0.49609 0.50391,0.74609 0.16797,0.2461 0.38281,0.47657 0.73828,0.72657 -0.34766,0.0703 0.83984,1.3789 0.27344,1.47265 -0.082,0.043 0.24218,0.33594 0.32421,0.49219 -0.2539,-0.0195 0.26563,0.92969 -0.25,0.87109 -0.0937,-0.13671 -0.1914,-0.21875 -0.28906,-0.28125 0.16406,0.23438 0.2461,0.3711 0.2461,0.3711 0,2.89844 -0.63672,4.7539 -1.57422,5.92187 -0.0391,0.0703 -0.0742,0.13282 -0.10938,0.19922 -0.0508,0.0937 -0.12109,0.17578 -0.20703,0.27344 -0.0898,0.0937 -0.19141,0.21094 -0.35156,0.32031 0.10156,0.004 0.26562,-0.14062 0.39844,-0.24609 -0.008,0.0937 -0.0859,0.16015 -0.1836,0.22656 -0.10547,0.0547 -0.22265,0.10938 -0.30859,0.19531 1.02344,-0.51562 1.78906,-1.69531 2.16406,-2.8789 -0.0234,0.34765 -0.29297,1.14843 -0.73047,1.7539 0.1875,-0.17187 0.34375,-0.4414 0.50391,-0.72656 0.14062,-0.29297 0.28906,-0.60156 0.39453,-0.875 -0.0937,0.58203 0.13281,-0.0625 0.27344,-0.32031 -0.42578,1.48437 -1.02344,2.44531 -1.84766,3.24219 -0.83594,0.76953 -1.98437,1.41796 -3.76172,1.55078 0.60938,-0.008 1.03906,-0.0312 1.52735,-0.23047 0.12109,-0.0469 0.38671,0.0117 0.13671,0.0898 0.0899,0.0547 0.44141,-0.29297 0.62891,-0.17187 -0.14844,0.21093 -0.63672,0.43359 -1.18359,0.54687 -0.54297,0.1211 -1.13282,0.16016 -1.51953,0.22266 0.0469,0.0664 0.33593,0.0391 0.21484,0.16797 0.47266,-0.0234 -0.16016,-0.17578 0.53906,-0.15235 -0.47656,0.38282 -1.4414,0.19141 -2.03125,0.10157 -0.51953,-0.0625 -1.1289,-0.10938 -1.83203,-0.35157 0.34375,0.28516 1.48438,0.42969 2.24219,0.52344 0.1914,0.0508 -0.0703,0.0352 -0.21875,0.0156 -0.35156,-0.0234 -0.76172,-0.0781 -1.19531,-0.16016 -0.21875,-0.0391 -0.4375,-0.0859 -0.66407,-0.14063 l -0.33593,-0.0898 -0.17969,-0.0508 -0.23438,-0.0742 c -0.30859,-0.11719 -0.64062,-0.20312 -0.91015,-0.37891 -0.11719,-0.10937 -0.23828,-0.21484 -0.35547,-0.32421 -0.10938,-0.10547 -0.21485,-0.20704 -0.32031,-0.3125 -0.25391,-0.24219 -0.48047,-0.46094 -0.66797,-0.64063 0.082,0.21094 0.24218,0.39063 0.45312,0.57813 0.0547,0.0469 0.10938,0.0937 0.16797,0.14453 0.10156,0.0937 0.20703,0.1914 0.3125,0.29297 0.11328,0.0937 0.22656,0.19531 0.34375,0.30078 l 0.0898,0.0781 c 0.0352,0.0195 0.0781,0.0312 0.11329,0.0508 0.0781,0.0312 0.15625,0.0625 0.23437,0.0977 -0.0234,0.0156 -0.0898,-0.004 -0.17578,-0.0352 -0.0391,-0.0195 -0.0859,-0.0351 -0.13281,-0.0547 0.17187,0.10546 0.39062,0.17968 0.61328,0.28125 0.13672,0.0547 0.29687,0.11328 0.4414,0.16015 0.11329,0.0391 0.21875,0.0742 0.33985,0.10938 0.45703,0.13672 0.98047,0.25781 1.53515,0.33593 1.09766,0.16016 2.35157,0.10547 3.32422,-0.17968 0.58594,-0.16016 0.98438,-0.41407 1.4336,-0.625 0.11718,-0.0625 0.26562,-0.14063 0.43359,-0.22266 0.16016,-0.0937 0.33203,-0.21484 0.49609,-0.33203 0.32813,-0.25391 0.61719,-0.55859 0.73047,-0.82813 0.57813,-0.46875 0.65625,-0.74609 0.83203,-1.23437 0.0742,0.0195 -0.0156,0.21875 0.10547,0.0664 0.23047,-0.28907 -0.0312,-0.20313 0.0312,-0.36719 0.10547,-0.14844 0.45703,-0.48828 0.41407,-0.75781 0.0781,0.0742 0.15234,-0.0977 0.22656,-0.36329 0.0703,-0.26562 0.10937,-0.625 0.17969,-0.92968 -0.1211,0.1914 -0.23047,0.625 -0.3711,0.63672 0.19922,-0.96485 0.48828,-1.77735 0.56641,-2.80469 0.0351,0.36328 -0.043,0.83203 -0.1211,1.29297 z m -69.00781,5.63672 c -0.23828,0.0859 -1.11328,0.69531 -1.02344,0.88671 0.38282,-0.25781 0.75391,-0.57031 1.02344,-0.88671 z m 67.71875,-11.91016 c -0.16406,-0.0547 0.39453,0.92578 0.58594,1.09766 -0.29688,-0.42579 -0.33984,-0.73047 -0.58594,-1.09766 z m -82.55859,27.26562 c -0.22656,0.22657 -0.42578,0.4375 -0.29688,0.49219 0.17188,-0.19922 0.30469,-0.3789 0.29688,-0.49219 z m 3.90234,-4.01171 c 0.11328,-0.008 0.73828,-0.71875 0.42188,-0.52735 0.0976,0.0742 -0.51563,0.45703 -0.42188,0.52735 z m -2.10547,2.48046 c 0.13282,-0.0664 0.67969,-0.5625 0.71094,-0.70703 -0.34375,0.31641 -0.58984,0.49219 -0.71094,0.70703 z m -1.22656,1.30469 c -0.0312,-0.19531 0.46484,-0.47265 0.48828,-0.61719 0.29297,-0.17187 -0.26562,0.40625 -0.48828,0.61719"
         id="path819" />
    </g>
  </g>
  <g
     inkscape:groupmode="layer"
     id="layer15"
     inkscape:label="eeye"
     style="display:none">
    <g
       clip-rule="nonzero"
       clip-path="url(#4ac23fe3a5)"
       id="g825"
       transform="translate(1.1894273,-19.79746)">
      <path
         style="fill:#100f0d;fill-opacity:1;fill-rule:nonzero;stroke:none"
         d="m 329.17578,358.74219 h 41.41797 v 56.46484 h -41.41797 z m 0,0"
         id="path823" />
    </g>
  </g>
  <g
     inkscape:groupmode="layer"
     id="layer16"
     inkscape:label="deye"
     style="display:inline">
    <g
       clip-rule="nonzero"
       clip-path="url(#d05b5a9fd2)"
       id="g831"
       transform="translate(1.1894273,-19.79746)">
      <path
         style="fill:#100f0d;fill-opacity:1;fill-rule:nonzero;stroke:none"
         d="m 436.58984,358.74219 h 41.41797 v 56.46484 h -41.41797 z m 0,0"
         id="path829" />
    </g>
  </g>
</svg>
